<?xml version="1.0" encoding="UTF-8"?><svg id="Layer_2" xmlns="http://www.w3.org/2000/svg" viewBox="0 0 342.48 52.09"><defs><style>.cls-1{fill:#08a510;stroke-width:0px;}</style></defs><g id="Layer_1-2"><path class="cls-1" d="M47.53,47.32c-6.44,3.36-13.51,4.76-20.79,4.76C11.27,52.08,0,41.93,0,26.04S11.27,0,26.74,0c7.84,0,14.77,1.75,19.74,6.37l-7.7,8.4c-2.94-3.08-6.51-4.69-12.04-4.69-9.31,0-15.4,6.72-15.4,15.96s6.09,15.96,15.4,15.96c4.76,0,8.26-1.33,10.29-2.45v-8.05h-8.89v-10.08h19.39v25.9ZM158.94,23.11v24.43c-4.83,2.94-12.74,4.55-18.76,4.55-16.8,0-26.53-11.97-26.53-26.04S124.35,0,139.48,0c9.1,0,14.63,2.45,18.48,6.44l-4.76,5.11c-4.06-3.92-8.75-5.25-13.72-5.25-11.34,0-18.69,8.89-18.69,19.74s8.33,19.74,19.25,19.74c4.69,0,9.17-.91,12.18-2.59v-13.79h-10.99v-6.3h17.71ZM171.18,1.27h17.43c12.67,0,15.89,7.63,15.89,13.86s-4.69,12.25-12.18,13.09l14.07,22.61h-8.4l-12.6-21.84h-7.49v21.84h-6.72V1.27ZM177.9,23.11h8.82c5.32,0,10.64-1.26,10.64-7.98s-5.32-7.98-10.64-7.98h-8.82v15.96ZM213.95,1.27h31.99v6.3h-25.27v14.77h23.52v6.3h-23.52v15.89h26.53v6.3h-33.25V1.27ZM256.72,1.27h31.99v6.3h-25.27v14.77h23.52v6.3h-23.52v15.89h26.53v6.3h-33.25V1.27ZM299.49,1.27h8.82l27.3,40.74h.14V1.27h6.72v49.56h-8.54l-27.58-40.74h-.14v40.74h-6.72V1.27ZM81.2,0c-15.47,0-26.74,10.15-26.74,26.04s11.27,26.04,26.74,26.04c1.57,0,3.1-.11,4.58-.32-14.36-4.59-10.56-23.21-11.16-30.68-.64-7.98-3.3-11.01-3.3-11.01,9.74,1.15,28.34,13.86,28.34,25.44,0,5.34-.95,9.18-1.82,11.59,6.27-4.49,10.11-11.8,10.11-21.07,0-15.89-11.27-26.04-26.74-26.04ZM94.22,49.24s1.98-8.17-1.53-14.68-7.19-9.64-7.19-9.64c0,0,2.9,4.63,4.32,11.04,1.34,6.06,4.4,13.28,4.4,13.28Z"/></g></svg>