<?xml version="1.0" standalone="no"?>
<!DOCTYPE svg PUBLIC "-//W3C//DTD SVG 20010904//EN"
 "http://www.w3.org/TR/2001/REC-SVG-20010904/DTD/svg10.dtd">
<svg version="1.0" xmlns="http://www.w3.org/2000/svg"
 width="297.000000pt" height="297.000000pt" viewBox="0 0 297.000000 297.000000"
 preserveAspectRatio="xMidYMid meet">
<metadata>
Created by potrace 1.14, written by Peter Selinger 2001-2017
</metadata>
<g transform="translate(0.000000,297.000000) scale(0.100000,-0.100000)"
fill="#000000" stroke="none">
<path d="M1340 2926 c-3 -2 -38 -7 -79 -10 -155 -14 -350 -71 -505 -147 -374
-185 -625 -507 -716 -918 -30 -141 -31 -149 -35 -321 -5 -288 33 -485 138
-712 36 -78 125 -221 166 -268 167 -188 307 -291 521 -382 85 -37 225 -81 290
-92 19 -3 46 -8 60 -11 69 -14 159 -20 300 -20 179 0 251 5 244 17 -3 4 -11 8
-19 8 -8 0 -53 20 -100 44 -248 128 -394 352 -454 696 -33 194 -35 243 -29
810 3 259 -65 564 -159 713 l-24 38 42 -6 c251 -38 653 -245 964 -497 74 -60
237 -222 294 -293 123 -151 183 -255 239 -414 25 -71 26 -87 26 -246 0 -185
-19 -336 -58 -477 -13 -46 -27 -92 -32 -102 -25 -61 216 169 297 284 130 185
214 409 247 660 14 108 8 380 -12 490 -33 193 -112 397 -208 542 -42 63 -136
177 -177 216 -231 215 -473 328 -831 387 -44 8 -384 17 -390 11z"/>
<path d="M1742 1525 c1 -5 19 -44 40 -85 90 -185 149 -352 184 -520 24 -116
122 -418 202 -624 42 -109 43 -109 58 9 10 74 10 291 1 367 -24 207 -142 449
-334 690 -60 76 -157 180 -151 163z"/>
</g>
</svg>
